<svg height="19.63mm" viewBox="0 0 106.9 55.66" width="37.71mm" xmlns="http://www.w3.org/2000/svg"><path d="m42.45 25.47c0 2.36-.77 4.26-2.32 5.69s-3.52 2.15-5.91 2.15c-1 0-2.05-.19-3.14-.58-1.8-.65-3.17-1.68-4.12-3.08s-1.42-3.08-1.42-5.03h4.61c.09 1.36.48 2.44 1.17 3.25s1.69 1.22 2.99 1.22c1.03 0 1.88-.3 2.55-.91.66-.6 1-1.42 1-2.46 0-.91-.38-1.67-1.15-2.26s-1.7-1.06-2.79-1.42c-1.09-.35-2.19-.77-3.3-1.24s-2.04-1.23-2.81-2.28-1.15-2.37-1.15-3.96c0-2.04.77-3.73 2.3-5.07s3.34-2.01 5.4-2.01 3.9.67 5.34 2.01c1.43 1.34 2.16 3.06 2.19 5.16h-4.61c-.12-.91-.44-1.64-.97-2.17s-1.26-.8-2.17-.8c-.8 0-1.48.24-2.04.71s-.84 1.11-.84 1.9c0 .21.02.41.07.6.04.19.1.36.15.51.06.15.15.3.29.44.13.15.24.27.33.35s.24.19.44.31c.21.12.35.2.44.24s.27.12.53.22c.27.1.44.16.51.18s.26.07.55.18c.29.1.46.15.49.15 2.33.71 4.15 1.67 5.45 2.88s1.95 2.91 1.95 5.09z"/><path d="m70.68 32.69h-4.61v-3.81h-.09c-.83 1.45-1.99 2.55-3.48 3.3s-3.11 1.13-4.85 1.13c-3.69 0-6.78-1.21-9.28-3.63s-3.74-5.48-3.74-9.17 1.24-6.82 3.72-9.3 5.58-3.72 9.3-3.72c1.71 0 3.31.35 4.78 1.04 1.48.69 2.66 1.72 3.54 3.08h.09v-3.45h4.61v24.53zm-4.52-12.22c0-2.48-.8-4.56-2.39-6.24s-3.63-2.52-6.11-2.52-4.39.86-6 2.57-2.41 3.78-2.41 6.2.81 4.35 2.44 6.07c1.62 1.71 3.6 2.57 5.93 2.57s4.41-.84 6.07-2.52c1.65-1.68 2.48-3.72 2.48-6.11z"/><path d="m78.21 5.4h-4.61v-5.4h4.61zm0 27.37h-4.61v-24.53h4.61z"/><path d="m106.9 20.74c0 3.48-1.19 6.45-3.56 8.9-2.38 2.45-5.32 3.68-8.83 3.68-1.77 0-3.45-.35-5.03-1.04s-2.78-1.73-3.61-3.12h-.09v11.73h-4.61v-32.73h4.21v3.76h.09c2.07-2.95 4.97-4.43 8.72-4.43s6.77 1.27 9.14 3.81c2.38 2.54 3.56 5.68 3.56 9.43zm-4.61-.27c0-2.36-.82-4.41-2.46-6.16-1.64-1.74-3.62-2.61-5.96-2.61s-4.28.86-5.85 2.57-2.35 3.75-2.35 6.11.79 4.48 2.37 6.18 3.56 2.55 5.96 2.55 4.33-.84 5.91-2.52 2.37-3.72 2.37-6.11z"/><path d="m23.54 20.12c0 .77-.04 1.54-.12 2.3h-19.1c.44 1.95 1.35 3.55 2.72 4.8 1.37 1.26 2.99 1.88 4.84 1.88 1.36 0 2.64-.37 3.85-1.11s2.11-1.74 2.72-3.01h4.32c-.89 2.51-2.33 4.52-4.32 6.04-2 1.52-4.24 2.28-6.74 2.28-3.24 0-6.01-1.28-8.3-3.85s-3.43-5.59-3.43-9.08 1.14-6.61 3.41-9.12 5.07-3.76 8.4-3.76 6.01 1.24 8.3 3.72 3.43 5.45 3.43 8.9zm-4.33-1.24c-.11-2.01-.91-3.7-2.39-5.09s-3.17-2.08-5.05-2.08-3.57.69-5.05 2.08-2.28 3.09-2.39 5.09h14.89z" fill="#3a79bc"/><path d="m82.63 46.64.46 1.8c.07.28.33.48.62.48h2.06l-1.39.94c-.27.18-.36.53-.22.82l1.18 2.38-2.39-1.2c-.09-.04-.19-.07-.29-.07-.17 0-.33.07-.45.19l-2.25 2.27 1.21-3.64c.09-.26 0-.55-.22-.72l-1.98-1.5 2.49.5s.08.01.13.01c.3 0 .55-.2.62-.49l.43-1.76m-.02-1.56c-.06 0-.13.04-.15.11l-.75 3.09c-.02.07-.08.11-.14.11 0 0-.02 0-.03 0l-3.96-.8s-.02 0-.03 0c-.14 0-.2.18-.09.27l3.18 2.4c.05.04.07.11.05.17l-1.66 5.01c-.04.11.05.2.14.2.04 0 .07-.01.1-.04l3.27-3.29s.07-.04.11-.04c.02 0 .05 0 .07.02l3.3 1.66s.05.02.07.02c.1 0 .19-.11.13-.22l-1.64-3.29c-.03-.07-.01-.15.05-.19l2.33-1.56c.12-.08.06-.28-.08-.28h-3.18c-.07 0-.13-.05-.14-.11l-.8-3.12c-.02-.08-.08-.11-.14-.11z" fill="#3a79bc"/><path d="m2.49 53.43v-5.14h2.77v.69h-2.02v1.51h2.02v.69h-2.02v1.56h2.02v.69zm.86-5.4-.29-.52 1.55-.89.31.56-1.56.85z"/><path d="m9.78 52.16c-.31.87-1.04 1.37-1.9 1.37-1.1 0-1.97-.89-1.97-1.99 0-1.16.84-2.06 1.96-2.06.87 0 1.67.55 1.9 1.38h-.8c-.22-.45-.56-.72-1.08-.72-.76 0-1.26.58-1.26 1.36s.52 1.37 1.25 1.37c.49 0 .89-.26 1.09-.71z"/><path d="m12.31 53.52c-1.08 0-2.05-.92-2.05-2.01 0-1.17.92-2.04 2.1-2.04 1.06 0 2.06.83 2.05 2.06-.01 1.03-.87 1.99-2.1 1.99zm.02-3.39c-.72 0-1.35.61-1.35 1.36s.6 1.37 1.33 1.37 1.37-.6 1.37-1.37-.6-1.35-1.36-1.35z"/><path d="m15.15 53.43v-5.14h.72v5.14z"/><path d="m17.33 51.81c.17.64.67 1.05 1.26 1.05.45 0 .87-.24 1.1-.65h.72c-.3.79-1.02 1.31-1.85 1.31-1.08 0-1.96-.96-1.96-1.99 0-1.22.92-2.06 1.94-2.06 1.13 0 1.99.87 1.99 1.98 0 .12 0 .23-.02.36h-3.19zm2.49-.55c-.06-.65-.63-1.12-1.25-1.12s-1.18.47-1.24 1.12z"/><path d="m26.48 53.43v-.55h-.01c-.3.42-.8.65-1.36.65-1.12 0-2-.85-2-1.98s.83-2.07 1.98-2.07c.52 0 1.01.19 1.33.58h.01v-1.76h.72v5.14h-.67zm-1.34-3.3c-.74 0-1.31.62-1.31 1.37s.59 1.35 1.31 1.35 1.34-.6 1.34-1.33c0-.78-.53-1.4-1.34-1.4z"/><path d="m28.22 49.59c.17-.06.26-.13.26-.45h-.26v-.85h.72v.78c0 .52-.23.85-.72.95v-.44z"/><path d="m30.06 53.43v-5.14h.75v5.14z"/><path d="m34.48 53.43v-2.1c0-.81-.32-1.19-.96-1.19s-1.01.47-1.01 1.19v2.1h-.72v-3.85h.67v.41h.01c.28-.37.68-.51 1.12-.51.92 0 1.6.58 1.6 1.65v2.31h-.72z"/><path d="m39.3 52.92c-.3.4-.78.6-1.33.6-1.1 0-2.06-.95-2.06-1.99 0-1.16.9-2.06 2.06-2.06.5 0 1.03.21 1.33.55v-.44h.72v3.34c0 1.25-.77 2.02-2.08 2.02-.88 0-1.58-.47-1.9-1.22h.81c.27.38.63.56 1.1.56.88 0 1.35-.48 1.35-1.36h-.01zm.02-1.42c0-.9-.69-1.37-1.35-1.37-.72 0-1.32.62-1.32 1.37s.61 1.36 1.33 1.36c.84 0 1.35-.74 1.35-1.36z"/><path d="m41.39 51.81c.17.64.67 1.05 1.26 1.05.45 0 .87-.24 1.1-.65h.72c-.3.79-1.02 1.31-1.85 1.31-1.08 0-1.96-.96-1.96-1.99 0-1.22.92-2.06 1.94-2.06 1.13 0 1.99.87 1.99 1.98 0 .12 0 .23-.02.36h-3.19zm2.48-.55c-.06-.65-.63-1.12-1.25-1.12s-1.18.47-1.24 1.12zm-1.74-2.08-.29-.52 1.55-.89.31.56-1.56.85z"/><path d="m48 53.43v-2.1c0-.81-.32-1.19-.96-1.19s-1.01.47-1.01 1.19v2.1h-.72v-3.85h.67v.41h.01c.28-.37.68-.51 1.12-.51.92 0 1.6.58 1.6 1.65v2.31h-.72z"/><path d="m49.65 49.13v-.85h.72v.85zm0 4.3v-3.85h.72v3.85z"/><path d="m51.83 51.81c.17.64.67 1.05 1.26 1.05.45 0 .87-.24 1.1-.65h.72c-.3.79-1.02 1.31-1.85 1.31-1.08 0-1.96-.96-1.96-1.99 0-1.22.92-2.06 1.94-2.06 1.13 0 1.99.87 1.99 1.98 0 .12 0 .23-.02.36h-3.19zm2.48-.55c-.06-.65-.63-1.12-1.25-1.12s-1.18.47-1.24 1.12z"/><path d="m58.5 53.43v-.42h-.01c-.19.33-.62.51-1.13.51-.83 0-1.6-.44-1.6-1.8v-2.15h.72v2.09c0 .81.3 1.19.96 1.19s1.01-.47 1.01-1.21v-2.08h.72v3.85h-.66z"/><path d="m60.09 53.43v-3.85h.67v.35h.01c.17-.26.47-.42.98-.45v.74c-.62.02-.94.4-.94 1.05v2.16z"/><path d="m63.97 50.6c-.03-.28-.19-.47-.49-.47-.28 0-.45.19-.45.41 0 .33.33.42.72.54.54.17 1.04.49 1.04 1.21s-.54 1.23-1.29 1.23c-.69 0-1.36-.47-1.36-1.36h.72c.03.47.27.7.65.7.33 0 .56-.22.56-.53 0-.26-.2-.44-.65-.58-.94-.3-1.1-.71-1.1-1.15 0-.68.58-1.13 1.21-1.13s1.16.44 1.18 1.12h-.72z"/><path d="m70.14 48.08h1.13v4.2h2.51v.95h-3.64z"/><path d="m74.21 50.65c.06-.95.92-1.25 1.75-1.25.74 0 1.64.17 1.64 1.06v1.94c0 .34.04.68.13.83h-1.04c-.04-.12-.06-.24-.07-.36-.32.34-.79.46-1.26.46-.71 0-1.27-.35-1.27-1.12.01-1.7 2.53-.79 2.48-1.62 0-.43-.3-.51-.66-.51-.4 0-.64.16-.68.56h-1.02zm2.36.76c-.17.15-.53.16-.85.22s-.61.17-.61.55.3.48.63.48c.8 0 .83-.63.83-.86v-.38z"/><path d="m88.63 51.41c0 .69.53.95 1.14.95.4 0 1-.12 1-.64 0-.56-.78-.64-1.53-.85-.76-.19-1.54-.51-1.54-1.46 0-1.06 1-1.56 1.93-1.56 1.07 0 2.06.47 2.06 1.66h-1.1c-.04-.61-.47-.78-1.02-.78-.36 0-.78.15-.78.58 0 .4.25.45 1.54.78.38.09 1.53.34 1.53 1.5 0 .94-.74 1.65-2.14 1.65-1.14 0-2.21-.56-2.19-1.83z"/><path d="m92.32 50.54c.06-.95.92-1.25 1.75-1.25.74 0 1.64.17 1.64 1.06v1.94c0 .34.04.68.13.83h-1.04c-.04-.12-.06-.24-.07-.36-.32.34-.79.46-1.26.46-.71 0-1.27-.35-1.27-1.12.01-1.7 2.53-.79 2.48-1.62 0-.43-.3-.51-.66-.51-.4 0-.64.16-.68.56h-1.02zm2.37.76c-.17.15-.53.16-.85.22s-.61.17-.61.55.3.48.63.48c.8 0 .83-.63.83-.86v-.38z"/><path d="m96.46 47.97h1.02v5.15h-1.02z"/><path d="m98.25 47.97h1.02v5.15h-1.02z"/><path d="m100.85 51.51c.03.66.34.95.92.95.41 0 .74-.25.81-.48h.9c-.29.89-.9 1.26-1.75 1.26-1.18 0-1.9-.81-1.9-1.96s.77-1.97 1.9-1.97c1.27 0 1.89 1.07 1.81 2.21h-2.69zm1.67-.65c-.09-.52-.32-.79-.82-.79-.66 0-.83.51-.85.79z"/></svg>